<svg xmlns="http://www.w3.org/2000/svg" viewBox="0 0 512 512">
  <!-- Background -->
  <rect width="512" height="512" rx="0" fill="#0f172a"/>
  <!-- Fairy icon, centred and scaled from 32x32 to ~320x320 (scale=10, translate to centre) -->
  <g transform="translate(96, 96) scale(10)">
    <path fill="white" d="M31.381 10.971v0 0c-4.918-2.522-9.645-0.988-13.087 2.149-1.069-0.92-2.459-1.476-3.979-1.476-0.334 0-0.661 0.027-0.98 0.079-1.484-4.943-4.878-9.502-10.023-10.895v-0c-4.776 9.196-3.207 17.396 3.763 18.518-2.247 1.993-3.42 4.585-3.322 7.306 3.799 1.191 6.527 0.258 8.24-1.838-3.322-1.123-5.244-4.65-4.324-8.085 0.585-2.183 2.183-3.824 4.153-4.553-2.128 0.953-3.611 3.090-3.611 5.573 0 3.371 2.733 6.103 6.103 6.103s6.103-2.732 6.103-6.103c0-1.481-0.528-2.839-1.406-3.896 1.548 1.636 2.236 4.013 1.61 6.348-0.912 3.405-4.288 5.492-7.696 4.858 0.226 3.034 1.922 5.528 5.615 6.3 1.388-2.141 1.701-4.708 0.87-7.903 6.096 3.98 11.347-1.665 11.969-12.484h-0z"/>
  </g>
</svg>
